<svg xmlns="http://www.w3.org/2000/svg" xmlns:xlink="http://www.w3.org/1999/xlink" width="110" height="55" viewBox="0 0 110 55">
  <defs>
    <clipPath id="clip-lenaelse-studio-logo-white">
      <rect width="110" height="55"/>
    </clipPath>
  </defs>
  <g id="lenaelse-studio-logo-white" clip-path="url(#clip-lenaelse-studio-logo-white)">
    <g id="Group_31" data-name="Group 31">
      <path id="Path_16" data-name="Path 16" d="M-24.456-7.872l.576-2.472h-6.648l.12-.576h6.432l1.92-8.328H-27.12l.288-1.224h-4.584l-1.992,2.064L-36.888-3.36h7.536l-.624,2.736-.5.216.576-2.52H-30.96l-1.032,4.536h.648l-.12.48h4.944l2.184-9.36h-6.912l.144-.6ZM-38.664-1.8l.216-.912h.768l.576-2.5h-.768l.192-.84h.72l.576-2.448h-.744l.216-.864h.816l.672-2.832h-.792L-36-13.08h-3.552l-.192.888h-1.1l1.608-2.376h.6l-.216.936h3.816l1.368-5.832h-3.072l.216-.984h-5.136l-.216.984h-2.232l-1.368,6h.72L-46.3-11.256-47.76-4.848h.816l-1.584,6.816h9.84L-37.8-1.8Zm11.3-14.184-.12.576h-1.9l.144-.576Zm-2.5,2.736.12-.576h1.872l-.12.576ZM-40.968-8.5h-.84l.216-.864h.816Zm-.768,3.288h-.84l.192-.84h.84Zm4.68,2.28-1.1,4.776h2.016l1.08-4.776Zm2.472,0-1.1,4.776h1.536l1.1-4.776Zm1.968,0L-33.7,1.848h1.2l1.1-4.776Zm-10.536.216h.84l-.216.912h-.84Zm27.552.12.936-.864,3.576-15.432h-2.688l.288-1.3h-5.9l-.288,1.3h-.6l-1.152,5.04h.576l-2.28,9.888.456.744L-24.1-1.872l-.888,3.792h3.528L-19.968.48l.96,1.44h3.12l.84-3.672ZM.984-14.16l1.344-5.832H-10.224L-15.24,1.728H-2.664l1.32-5.736H-2.808l.192-.888h.936L.24-13.224H-.7l.216-.936Zm-5.856.936h-.96L-7.752-4.9h.96l-.216.888H-8.664L-6.312-14.16h1.656Zm-11.136-.624-1.632,7.08-.6.576-.24-.36,1.68-7.3ZM-3.12-9.912l-.456,1.92h-.792l.432-1.92Zm21.432-7.272h5.76l1.488-.864.5-2.208H4.464l-.7,3.072h6.7l-.12.552H3.336L2.592-13.32H9.576l-.144.648H2.88l-1.7,7.3H7.992l-.144.648H1.056l-.6,2.616H7.248l-.144.6H-.048L-.84,1.968H21.336l.792-3.48h-7.2l.144-.6h6.864l.6-2.616H15.672l.144-.648H22.56l1.68-7.3H17.28l.144-.648h7.44l.768-3.312H18.168Zm-8.28,6.792-.12.5H7.9l.12-.5Zm7.728.5H15.744l.12-.5H17.88ZM7.56-8.376H9.552l-.12.5H7.44Zm7.728.5.12-.5h2.016l-.12.5ZM48.24-13.128l1.512-6.528H28.584l-1.512,6.528h6.1L31.3-5.04H24.7L23.16,1.632H45.48L47.016-5.04H40.224L42.1-13.128Z" transform="translate(55 27)" fill="#fff"/>
      <path id="Path_17" data-name="Path 17" d="M-42.637,0l.224-1.064h-5.432c-.378,0-.518-.1-.518-.35a1.559,1.559,0,0,1,.028-.238L-46.6-9.8h-1.3l-1.834,8.624a1.249,1.249,0,0,0-.042.308c0,.56.42.868,1.036.868Zm6.9,0,.2-.952h-3.626c-1.036,0-1.316-.56-1.316-1.3a5.931,5.931,0,0,1,.126-1.064h4.41c.98,0,1.218-.448,1.4-1.3a3.411,3.411,0,0,0,.07-.812c0-1.582-1.274-2.072-2.982-2.072-2.506,0-3.486.952-4.06,3.682a7.62,7.62,0,0,0-.2,1.6A1.965,1.965,0,0,0-39.473,0Zm-4.41-4.27c.364-1.694,1.106-2.282,2.632-2.282,1.064,0,1.806.336,1.806,1.3a2.777,2.777,0,0,1-.07.546v.056a.426.426,0,0,1-.42.378ZM-34.419,0h1.176l1.274-5.992c.084-.378.266-.476.546-.476h2.03c.868,0,1.2.392,1.2,1.036a2.7,2.7,0,0,1-.084.63L-29.3,0h1.176l1.064-5.012a3.467,3.467,0,0,0,.07-.63c0-1.162-.826-1.778-2.2-1.778H-31.7c-.952,0-1.232.448-1.4,1.218Zm9.6-7.42-.2.952H-21.4c.6,0,.854.28.854.728a1.569,1.569,0,0,1-.042.336l-.182.882h-3.29c-1.5,0-2.128.644-2.436,2.114a3.3,3.3,0,0,0-.07.8A1.476,1.476,0,0,0-24.885,0h3.164a1.227,1.227,0,0,0,1.4-1.12l.91-4.27a2.181,2.181,0,0,0,.07-.5c0-.868-.532-1.526-1.708-1.526Zm3.85,3.85-.476,2.24a.46.46,0,0,1-.476.378h-2.7c-.532,0-.714-.28-.714-.728a3.318,3.318,0,0,1,.07-.588c.168-.8.476-1.3,1.2-1.3ZM-11.585,0l.224-1.064H-16.9c-.406,0-.532-.1-.532-.35a1.561,1.561,0,0,1,.042-.322l.574-2.744h5.992l.224-1.064H-16.6l.546-2.534c.1-.49.238-.658.784-.658h5.488L-9.555-9.8h-6.062c-.994,0-1.442.336-1.666,1.386l-1.5,7.028a1.837,1.837,0,0,0-.042.378c0,.63.406,1.008,1.12,1.008Zm1.316,0h1.176l2.086-9.8H-8.183Zm2.408,0h4.508C-1.8,0-1.365-.588-1.113-1.736a2.046,2.046,0,0,0,.042-.49c0-1.064-.9-1.428-2.03-1.736L-4.487-4.34c-.672-.182-1.148-.364-1.148-.938a1.234,1.234,0,0,1,.042-.294.975.975,0,0,1,1.134-.9H-.567l.2-.952H-4.389c-1.442,0-2.142.462-2.408,1.708a2.335,2.335,0,0,0-.042.532c0,.924.616,1.484,1.638,1.75l1.288.336c.98.252,1.61.42,1.61.98a2.269,2.269,0,0,1-.042.28.982.982,0,0,1-1.092.882H-7.651ZM5.957,0l.2-.952H2.527c-1.036,0-1.316-.56-1.316-1.3a5.931,5.931,0,0,1,.126-1.064h4.41c.98,0,1.218-.448,1.4-1.3a3.411,3.411,0,0,0,.07-.812C7.217-7.014,5.943-7.5,4.235-7.5,1.729-7.5.749-6.552.175-3.822a7.62,7.62,0,0,0-.2,1.6A1.965,1.965,0,0,0,2.219,0ZM1.547-4.27c.364-1.694,1.106-2.282,2.632-2.282,1.064,0,1.806.336,1.806,1.3a2.777,2.777,0,0,1-.07.546v.056a.426.426,0,0,1-.42.378ZM10.409,0h5.838C17.9,0,18.515-.966,18.8-2.3a3.016,3.016,0,0,0,.056-.686A1.934,1.934,0,0,0,17.3-4.872L13.853-6.1a.907.907,0,0,1-.714-.882,3.175,3.175,0,0,1,.07-.49c.2-.91.644-1.26,1.386-1.26h5.068L19.887-9.8H14.581a2.4,2.4,0,0,0-2.716,2.156,3.449,3.449,0,0,0-.07.728A1.754,1.754,0,0,0,13.027-5.11l3.612,1.288c.672.238.868.6.868.98a2.171,2.171,0,0,1-.056.406c-.182.854-.6,1.372-1.344,1.372H10.633ZM23.233,0l.21-.952h-.49c-.91,0-1.33-.224-1.33-.91a2.38,2.38,0,0,1,.07-.588l.854-4.018h2.072l.2-.952H22.743l.5-2.38H22.071l-.5,2.38H20.475l-.2.952h1.092L20.489-2.38a3.3,3.3,0,0,0-.084.714c0,.98.56,1.666,1.946,1.666Zm8.848-7.42H30.905L29.631-1.428c-.084.378-.252.476-.532.476H26.985c-.882,0-1.2-.406-1.2-1.064a3.317,3.317,0,0,1,.07-.6l1.022-4.8H25.7L24.633-2.408a3.467,3.467,0,0,0-.07.63c0,1.162.826,1.778,2.2,1.778h2.6c.952,0,1.232-.434,1.4-1.218ZM37.009,0C38,0,38.241-.434,38.4-1.162L40.229-9.8H39.053l-.5,2.38H36.323c-2.59,0-3.374,1.26-3.864,3.57a6.7,6.7,0,0,0-.182,1.5c0,1.484.728,2.352,2.6,2.352Zm1.33-6.454-1.05,4.97c-.084.378-.21.532-.6.532H35.175c-1.26,0-1.666-.476-1.666-1.386a6.993,6.993,0,0,1,.182-1.372c.364-1.75.868-2.744,2.646-2.744ZM39.543,0h1.176L42.3-7.42H41.125Zm3.01-8.512L42.819-9.8h-1.2l-.266,1.288ZM47.145-7.5c-2.66,0-3.864.826-4.466,3.626a6.207,6.207,0,0,0-.154,1.358c0,1.834,1.106,2.6,3.29,2.6,2.66,0,3.878-.868,4.48-3.682a6.181,6.181,0,0,0,.154-1.344C50.449-6.762,49.329-7.5,47.145-7.5ZM43.911-3.738c.448-2.1,1.288-2.814,3.178-2.814,1.47,0,2.128.434,2.128,1.624a5.9,5.9,0,0,1-.154,1.19c-.448,2.1-1.288,2.87-3.178,2.87-1.47,0-2.128-.476-2.128-1.68A5.9,5.9,0,0,1,43.911-3.738Z" transform="translate(55 48)" fill="#fff" opacity="0.75"/>
    </g>
  </g>
</svg>
