<svg xmlns="http://www.w3.org/2000/svg" xmlns:xlink="http://www.w3.org/1999/xlink" width="110" height="55" viewBox="0 0 110 55">
  <defs>
    <clipPath id="clip-path">
      <rect id="Rectangle_384" data-name="Rectangle 384" width="110" height="55" fill="#fff"/>
    </clipPath>
    <linearGradient id="linear-gradient" x2="1" y2="1" gradientUnits="objectBoundingBox">
      <stop offset="0" stop-color="#618bfb"/>
      <stop offset="1" stop-color="#ff56b4"/>
    </linearGradient>
    <clipPath id="clip-lenaelse-studio-logo-brand">
      <rect width="110" height="55"/>
    </clipPath>
  </defs>
  <g id="lenaelse-studio-logo-brand" clip-path="url(#clip-lenaelse-studio-logo-brand)">
    <g id="Mask_Group_20" data-name="Mask Group 20" clip-path="url(#clip-path)">
      <path id="Union_16" data-name="Union 16" d="M-106.81,314.952a6.233,6.233,0,0,1,.154-1.358c.6-2.8,1.806-3.626,4.467-3.626,2.183,0,3.3.742,3.3,2.562a6.206,6.206,0,0,1-.154,1.344c-.6,2.814-1.821,3.682-4.48,3.682C-105.7,317.556-106.81,316.786-106.81,314.952Zm1.386-1.219a5.894,5.894,0,0,0-.154,1.191c0,1.2.658,1.679,2.129,1.679,1.89,0,2.73-.77,3.178-2.87a5.885,5.885,0,0,0,.154-1.19c0-1.19-.658-1.624-2.128-1.624C-104.136,310.92-104.976,311.634-105.424,313.734Zm-4.368,3.739,1.582-7.421h1.175l-1.581,7.421Zm-4.662,0c-1.877,0-2.6-.868-2.6-2.353a6.7,6.7,0,0,1,.182-1.5c.49-2.31,1.273-3.57,3.864-3.57h2.226l.5-2.38h1.176l-1.834,8.638c-.154.727-.392,1.162-1.386,1.162Zm-1.19-3.711a6.974,6.974,0,0,0-.183,1.372c0,.91.407,1.386,1.667,1.386h1.512c.392,0,.518-.154.6-.532l1.05-4.97h-2C-114.776,311.018-115.28,312.012-115.644,313.762Zm-6.93,3.711c-1.373,0-2.2-.617-2.2-1.778a3.521,3.521,0,0,1,.07-.63l1.064-5.012h1.176l-1.021,4.8a3.287,3.287,0,0,0-.07.6c0,.658.322,1.064,1.2,1.064h2.113c.281,0,.448-.1.533-.476l1.274-5.992h1.176l-1.316,6.2c-.168.784-.448,1.219-1.4,1.219Zm-4.41,0c-1.386,0-1.947-.687-1.947-1.666a3.317,3.317,0,0,1,.085-.715l.882-4.088h-1.093l.2-.952h1.093l.5-2.38h1.175l-.5,2.38h2.072l-.2.952h-2.073l-.853,4.018a2.352,2.352,0,0,0-.07.589c0,.686.419.91,1.33.91h.49l-.21.952Zm-11.942,0,.224-1.065h5.474c.742,0,1.162-.517,1.344-1.372a2.182,2.182,0,0,0,.056-.406c0-.378-.2-.742-.868-.98l-3.612-1.288a1.754,1.754,0,0,1-1.232-1.806,3.407,3.407,0,0,1,.07-.728,2.4,2.4,0,0,1,2.715-2.155h5.306l-.224,1.064h-5.068c-.743,0-1.19.35-1.386,1.26a3.19,3.19,0,0,0-.07.49.907.907,0,0,0,.714.882l3.444,1.232a1.934,1.934,0,0,1,1.554,1.89,3.031,3.031,0,0,1-.056.687c-.281,1.329-.9,2.3-2.549,2.3Zm-8.862,0a1.476,1.476,0,0,1-1.68-1.61,3.293,3.293,0,0,1,.07-.8c.308-1.47.938-2.114,2.436-2.114h3.289l.183-.882a1.569,1.569,0,0,0,.041-.336c0-.448-.252-.728-.854-.728h-3.612l.2-.952h3.766c1.176,0,1.708.658,1.708,1.526a2.169,2.169,0,0,1-.07.5l-.91,4.27a1.227,1.227,0,0,1-1.4,1.121Zm-.378-2.268a3.288,3.288,0,0,0-.07.588c0,.448.183.728.715.728h2.7a.46.46,0,0,0,.476-.378l.476-2.24h-3.094C-147.69,313.9-148,314.406-148.166,315.2Zm-8.918,2.268.211-.952h4.214a.982.982,0,0,0,1.092-.882,2.187,2.187,0,0,0,.042-.28c0-.56-.63-.728-1.61-.98l-1.288-.336c-1.022-.266-1.638-.826-1.638-1.751a2.365,2.365,0,0,1,.041-.532c.266-1.246.967-1.708,2.408-1.708h4.018l-.2.952h-3.893a.975.975,0,0,0-1.134.9,1.23,1.23,0,0,0-.041.293c0,.574.475.756,1.148.938l1.386.378c1.134.309,2.03.672,2.03,1.736a2.036,2.036,0,0,1-.042.491c-.252,1.147-.686,1.736-2.24,1.736Zm-2.408,0,2.085-9.8h1.176l-2.086,9.8Zm-7.434,0c-.715,0-1.12-.378-1.12-1.008a1.842,1.842,0,0,1,.042-.378l1.5-7.028c.224-1.05.672-1.386,1.666-1.386h6.062l-.224,1.064h-5.488c-.545,0-.686.168-.784.658l-.545,2.534h5.991l-.224,1.064h-5.991l-.574,2.744a1.568,1.568,0,0,0-.042.322c0,.252.126.349.532.349h5.544l-.224,1.065Zm-7.182,0a1.476,1.476,0,0,1-1.68-1.61,3.292,3.292,0,0,1,.07-.8c.308-1.47.938-2.114,2.435-2.114h3.29l.182-.882a1.574,1.574,0,0,0,.042-.336c0-.448-.252-.728-.854-.728h-3.612l.2-.952h3.766c1.176,0,1.708.658,1.708,1.526a2.168,2.168,0,0,1-.07.5l-.91,4.27a1.228,1.228,0,0,1-1.4,1.121Zm-.378-2.268a3.288,3.288,0,0,0-.07.588c0,.448.182.728.714.728h2.7a.459.459,0,0,0,.476-.378l.476-2.24h-3.094C-174.01,313.9-174.318,314.406-174.486,315.2Zm-4.032,2.268,1.021-4.8a2.712,2.712,0,0,0,.085-.63c0-.644-.337-1.036-1.2-1.036h-2.03c-.28,0-.462.1-.545.476l-1.274,5.992h-1.176l1.317-6.2c.167-.77.447-1.219,1.4-1.219h2.52c1.372,0,2.2.616,2.2,1.778a3.517,3.517,0,0,1-.069.63l-1.065,5.012Zm-10.178,0a1.965,1.965,0,0,1-2.24-2.227,7.619,7.619,0,0,1,.2-1.6c.573-2.73,1.553-3.682,4.06-3.682,1.708,0,2.982.49,2.982,2.072a3.4,3.4,0,0,1-.07.812c-.182.854-.419,1.3-1.4,1.3h-4.41a5.9,5.9,0,0,0-.126,1.064c0,.742.28,1.3,1.316,1.3h3.626l-.2.952Zm-.672-4.271h3.948a.425.425,0,0,0,.419-.378v-.056a2.752,2.752,0,0,0,.07-.546c0-.966-.742-1.3-1.805-1.3C-188.262,310.92-189,311.508-189.368,313.2Zm-8.6,4.271c-.616,0-1.036-.309-1.036-.868a1.208,1.208,0,0,1,.042-.308l1.833-8.624h1.3l-1.736,8.148a1.621,1.621,0,0,0-.028.238c0,.252.14.349.518.349h5.432l-.224,1.065Zm89.978-8.512.266-1.288h1.2l-.266,1.288Zm-72.758-6.4.121-.481h-.648l1.031-4.536h1.057l-.576,2.52.5-.216.624-2.736h-7.536l3.479-15.048,1.993-2.064h4.584l-.288,1.224h5.064l-1.921,8.328h-6.431l-.121.576h6.648l-.576,2.472h-6.648l-.144.6h6.912l-2.183,9.36Zm1.608-15.336h1.872l.12-.576h-1.872Zm.48-2.16h1.9l.12-.576h-1.872Zm28.536,17.375.792-3.479h7.152l.144-.6h-6.792l.6-2.616h6.791l.144-.648H-148.1l1.7-7.3h6.552l.144-.648h-6.984l.744-3.312h7.008l.12-.553h-6.7l.7-3.072h21.6l-.5,2.208-1.488.864h-5.76l-.144.553h7.464l-.768,3.312h-7.44l-.144.648h6.961l-1.68,7.3h-6.744l-.144.648h6.863l-.6,2.616h-6.864l-.144.6h7.2l-.792,3.479Zm16.128-9.84h2.016l.12-.5h-2.016Zm-7.848,0h1.992l.121-.5h-1.993Zm8.3-2.016h2.016l.12-.5h-2.016Zm-7.848,0h2.016l.12-.5h-2.016Zm-56.425,11.856,1.584-6.816h-.815l1.463-6.408,1.536-2.208h-.72l1.368-6h2.232l.216-.984h5.136l-.216.984h3.072l-1.368,5.832h-3.816l.216-.936h-.6l-1.607,2.376h1.1l.193-.888h3.551l-.216.888h.792l-.671,2.832h-.816l-.216.864h.744l-.576,2.448h-.72l-.193.84h.769l-.576,2.5h-.769l-.216.913h.864l-.887,3.767Zm5.161-3.767h.84l.216-.913h-.84Zm.792-3.408h.84l.192-.84h-.84Zm.768-3.288h.84l.193-.864h-.816Zm22.8,10.416-.959-1.44-1.489,1.44h-3.528l.888-3.792,1.416-1.345-.455-.743,2.28-9.888h-.576l1.152-5.04h.6l.288-1.3h5.9l-.288,1.3h2.687l-3.576,15.432-.936.864.552.84-.84,3.672Zm.528-8.472.24.36.6-.576,1.633-7.08h-.792Zm-15.216,8.4,1.08-4.776h1.224l-1.1,4.776Zm-1.992,0,1.1-4.776h1.535l-1.1,4.776Zm-2.472,0,1.1-4.776h1.992l-1.08,4.776Zm22.92-.12,5.016-21.721h12.552l-1.344,5.832h-1.464l-.216.936h.936l-1.92,8.329h-.936l-.193.887h1.464l-1.32,5.737Zm6.576-5.737h1.656l.216-.887h-.96l1.92-8.329h.96l.216-.936h-1.656Zm4.3-3.983h.792l.456-1.921h-.816Zm27.528,9.624,1.535-6.672h6.6l1.872-8.088h-6.1l1.512-6.528h21.168l-1.512,6.528h-6.143l-1.872,8.088h6.791L-103.8,302.1Z" transform="translate(204.279 -271.472)" fill="url(#linear-gradient)"/>
    </g>
  </g>
</svg>
