<svg xmlns="http://www.w3.org/2000/svg" xmlns:xlink="http://www.w3.org/1999/xlink" width="110" height="55" viewBox="0 0 110 55">
  <defs>
    <linearGradient id="linear-gradient" x2="1" y2="1" gradientUnits="objectBoundingBox">
      <stop offset="0" stop-color="#618bfb"/>
      <stop offset="1" stop-color="#ff56b4"/>
    </linearGradient>
    <clipPath id="clip-lenaelse-studio-logo-brand">
      <rect width="110" height="55"/>
    </clipPath>
  </defs>
  <g id="lenaelse-studio-logo-brand" clip-path="url(#clip-lenaelse-studio-logo-brand)">
    <path id="Union_13" data-name="Union 13" d="M-106.81,318.952a6.233,6.233,0,0,1,.154-1.358c.6-2.8,1.806-3.626,4.467-3.626,2.183,0,3.3.742,3.3,2.562a6.2,6.2,0,0,1-.154,1.344c-.6,2.814-1.821,3.682-4.48,3.682C-105.7,321.556-106.81,320.786-106.81,318.952Zm1.386-1.218a5.886,5.886,0,0,0-.154,1.19c0,1.2.658,1.68,2.129,1.68,1.89,0,2.73-.77,3.178-2.87a5.893,5.893,0,0,0,.154-1.19c0-1.191-.658-1.624-2.128-1.624C-104.136,314.92-104.976,315.634-105.424,317.734Zm-4.368,3.738,1.582-7.42h1.175l-1.581,7.42Zm-4.662,0c-1.877,0-2.6-.868-2.6-2.352a6.706,6.706,0,0,1,.182-1.5c.49-2.309,1.273-3.569,3.864-3.569h2.226l.5-2.38h1.176l-1.834,8.638c-.154.728-.392,1.162-1.386,1.162Zm-1.19-3.71a6.958,6.958,0,0,0-.183,1.372c0,.91.407,1.386,1.667,1.386h1.512c.392,0,.518-.154.6-.532l1.05-4.97h-2C-114.776,315.018-115.28,316.012-115.644,317.762Zm-6.93,3.71c-1.373,0-2.2-.616-2.2-1.777a3.512,3.512,0,0,1,.07-.63l1.064-5.012h1.176l-1.021,4.8a3.3,3.3,0,0,0-.07.6c0,.658.322,1.064,1.2,1.064h2.113c.281,0,.448-.1.533-.476l1.274-5.991h1.176l-1.316,6.2c-.168.784-.448,1.218-1.4,1.218Zm-4.41,0c-1.386,0-1.947-.686-1.947-1.666a3.309,3.309,0,0,1,.085-.714l.882-4.089h-1.093l.2-.951h1.093l.5-2.38h1.175l-.5,2.38h2.072l-.2.951h-2.073l-.853,4.018a2.35,2.35,0,0,0-.07.588c0,.686.419.91,1.33.91h.49l-.21.952Zm-11.942,0,.224-1.064h5.474c.742,0,1.162-.518,1.344-1.372a2.172,2.172,0,0,0,.056-.406c0-.378-.2-.742-.868-.98l-3.612-1.288a1.753,1.753,0,0,1-1.232-1.805,3.4,3.4,0,0,1,.07-.728,2.4,2.4,0,0,1,2.715-2.156h5.306l-.224,1.064h-5.068c-.743,0-1.19.35-1.386,1.26a3.2,3.2,0,0,0-.07.491.907.907,0,0,0,.714.882l3.444,1.232a1.934,1.934,0,0,1,1.554,1.89,3.027,3.027,0,0,1-.056.686c-.281,1.33-.9,2.3-2.549,2.3Zm-8.862,0a1.476,1.476,0,0,1-1.68-1.61,3.286,3.286,0,0,1,.07-.8c.308-1.471.938-2.114,2.436-2.114h3.289l.183-.882a1.576,1.576,0,0,0,.041-.337c0-.447-.252-.728-.854-.728h-3.612l.2-.951h3.766c1.176,0,1.708.658,1.708,1.526a2.162,2.162,0,0,1-.07.5l-.91,4.27a1.227,1.227,0,0,1-1.4,1.12Zm-.378-2.268a3.3,3.3,0,0,0-.07.588c0,.448.183.728.715.728h2.7a.46.46,0,0,0,.476-.378l.476-2.24h-3.094C-147.69,317.9-148,318.406-148.166,319.2Zm-8.918,2.268.211-.952h4.214a.982.982,0,0,0,1.092-.882,2.186,2.186,0,0,0,.042-.28c0-.56-.63-.728-1.61-.98l-1.288-.336c-1.022-.266-1.638-.826-1.638-1.75a2.377,2.377,0,0,1,.041-.533c.266-1.246.967-1.707,2.408-1.707h4.018l-.2.951h-3.893a.975.975,0,0,0-1.134.9,1.231,1.231,0,0,0-.041.294c0,.573.475.756,1.148.938l1.386.378c1.134.308,2.03.672,2.03,1.736a2.028,2.028,0,0,1-.042.49c-.252,1.148-.686,1.736-2.24,1.736Zm-2.408,0,2.085-9.8h1.176l-2.086,9.8Zm-7.434,0c-.715,0-1.12-.378-1.12-1.008a1.849,1.849,0,0,1,.042-.378l1.5-7.028c.224-1.049.672-1.386,1.666-1.386h6.062l-.224,1.064h-5.488c-.545,0-.686.168-.784.659l-.545,2.534h5.991l-.224,1.064h-5.991l-.574,2.744a1.576,1.576,0,0,0-.042.322c0,.252.126.35.532.35h5.544l-.224,1.064Zm-7.182,0a1.476,1.476,0,0,1-1.68-1.61,3.285,3.285,0,0,1,.07-.8c.308-1.471.938-2.114,2.435-2.114h3.29l.182-.882a1.581,1.581,0,0,0,.042-.337c0-.447-.252-.728-.854-.728h-3.612l.2-.951h3.766c1.176,0,1.708.658,1.708,1.526a2.161,2.161,0,0,1-.07.5l-.91,4.27a1.227,1.227,0,0,1-1.4,1.12Zm-.378-2.268a3.3,3.3,0,0,0-.07.588c0,.448.182.728.714.728h2.7a.459.459,0,0,0,.476-.378l.476-2.24h-3.094C-174.01,317.9-174.318,318.406-174.486,319.2Zm-4.032,2.268,1.021-4.8a2.712,2.712,0,0,0,.085-.63c0-.644-.337-1.037-1.2-1.037h-2.03c-.28,0-.462.1-.545.476l-1.274,5.992h-1.176l1.317-6.2c.167-.77.447-1.218,1.4-1.218h2.52c1.372,0,2.2.616,2.2,1.777a3.517,3.517,0,0,1-.069.63l-1.065,5.012Zm-10.178,0a1.964,1.964,0,0,1-2.24-2.226,7.627,7.627,0,0,1,.2-1.6c.573-2.73,1.553-3.682,4.06-3.682,1.708,0,2.982.491,2.982,2.073a3.4,3.4,0,0,1-.07.812c-.182.854-.419,1.3-1.4,1.3h-4.41a5.923,5.923,0,0,0-.126,1.065c0,.742.28,1.3,1.316,1.3h3.626l-.2.952Zm-.672-4.27h3.948a.425.425,0,0,0,.419-.378v-.057a2.752,2.752,0,0,0,.07-.545c0-.967-.742-1.3-1.805-1.3C-188.262,314.92-189,315.508-189.368,317.2Zm-8.6,4.27c-.616,0-1.036-.308-1.036-.868a1.221,1.221,0,0,1,.042-.309l1.833-8.624h1.3l-1.736,8.149a1.61,1.61,0,0,0-.028.238c0,.252.14.35.518.35h5.432l-.224,1.064Zm89.978-8.512.266-1.288h1.2l-.266,1.288Zm-72.758-10.4.121-.481h-.648l1.031-4.536h1.057l-.576,2.52.5-.216.624-2.736h-7.536l3.479-15.048,1.993-2.064h4.584l-.288,1.224h5.064l-1.921,8.328h-6.431l-.121.576h6.648l-.576,2.472h-6.648l-.144.6h6.912l-2.183,9.36Zm1.608-15.336h1.872l.12-.576h-1.872Zm.48-2.16h1.9l.12-.576h-1.872Zm28.536,17.375.792-3.479h7.152l.144-.6h-6.792l.6-2.616h6.791l.144-.648H-148.1l1.7-7.3h6.552l.144-.648h-6.984l.744-3.312h7.008l.12-.553h-6.7l.7-3.072h21.6l-.5,2.208-1.488.864h-5.76l-.144.553h7.464l-.768,3.312h-7.44l-.144.648h6.961l-1.68,7.3h-6.744l-.144.648h6.863l-.6,2.616h-6.864l-.144.6h7.2l-.792,3.479Zm16.128-9.84h2.016l.12-.5h-2.016Zm-7.848,0h1.992l.121-.5h-1.993Zm8.3-2.016h2.016l.12-.5h-2.016Zm-7.848,0h2.016l.12-.5h-2.016Zm-56.425,11.856,1.584-6.816h-.815l1.463-6.408,1.536-2.208h-.72l1.368-6h2.232l.216-.984h5.136l-.216.984h3.072l-1.368,5.832h-3.816l.216-.936h-.6l-1.607,2.376h1.1l.193-.888h3.551l-.216.888h.792l-.671,2.832h-.816l-.216.864h.744l-.576,2.448h-.72l-.193.84h.769l-.576,2.5h-.769l-.216.913h.864l-.887,3.767Zm5.161-3.767h.84l.216-.913h-.84Zm.792-3.408h.84l.192-.84h-.84Zm.768-3.288h.84l.193-.864h-.816Zm22.8,10.416-.959-1.44-1.489,1.44h-3.528l.888-3.792,1.416-1.345-.455-.743,2.28-9.888h-.576l1.152-5.04h.6l.288-1.3h5.9l-.288,1.3h2.687l-3.576,15.432-.936.864.552.84-.84,3.672Zm.528-8.472.24.36.6-.576,1.633-7.08h-.792Zm-15.216,8.4,1.08-4.776h1.224l-1.1,4.776Zm-1.992,0,1.1-4.776h1.535l-1.1,4.776Zm-2.472,0,1.1-4.776h1.992l-1.08,4.776Zm22.92-.12,5.016-21.721h12.552l-1.344,5.832h-1.464l-.216.936h.936l-1.92,8.329h-.936l-.193.887h1.464l-1.32,5.737Zm6.576-5.737h1.656l.216-.887h-.96l1.92-8.329h.96l.216-.936h-1.656Zm4.3-3.983h.792l.456-1.921h-.816Zm27.528,9.624,1.535-6.672h6.6l1.872-8.088h-6.1l1.512-6.528h21.168l-1.512,6.528h-6.143l-1.872,8.088h6.791L-103.8,302.1Z" transform="translate(204.279 -273.472)" fill="url(#linear-gradient)"/>
  </g>
</svg>
